<svg xmlns="http://www.w3.org/2000/svg" width="12" height="8" viewBox="0 0 12 8" fill="none">
<path d="M11.2826 2.03129L6.28255 7.03129C6.21287 7.10121 6.13008 7.15669 6.03892 7.19454C5.94775 7.2324 5.85001 7.25188 5.7513 7.25188C5.65259 7.25188 5.55485 7.2324 5.46369 7.19454C5.37252 7.15669 5.28973 7.10121 5.22005 7.03129L0.220051 2.03129C0.0791548 1.8904 -2.09952e-09 1.6993 0 1.50004C2.09952e-09 1.30078 0.0791548 1.10969 0.220051 0.968791C0.360947 0.827895 0.552044 0.748741 0.751301 0.748741C0.950558 0.748741 1.14165 0.827895 1.28255 0.968791L5.75193 5.43817L10.2213 0.968167C10.3622 0.827271 10.5533 0.748116 10.7526 0.748116C10.9518 0.748116 11.1429 0.827271 11.2838 0.968167C11.4247 1.10906 11.5039 1.30016 11.5039 1.49942C11.5039 1.69867 11.4247 1.88977 11.2838 2.03067L11.2826 2.03129Z" fill="black"/>
</svg>